<?xml version="1.0" encoding="utf-8"?>
<!-- Generator: Adobe Illustrator 25.2.0, SVG Export Plug-In . SVG Version: 6.00 Build 0)  -->
<svg version="1.1" id="Слой_1" xmlns="http://www.w3.org/2000/svg" xmlns:xlink="http://www.w3.org/1999/xlink" x="0px" y="0px"
	 viewBox="0 0 127.5 204.7" style="enable-background:new 0 0 127.5 204.7;" xml:space="preserve">
<style type="text/css">
	.st0{fill:url(#SVGID_1_);}
	.st1{fill:#2E3192;}
	.st2{opacity:0.2;fill:url(#SVGID_2_);enable-background:new    ;}
</style>
<linearGradient id="SVGID_1_" gradientUnits="userSpaceOnUse" x1="6.788496e-07" y1="104.3716" x2="127.4601" y2="104.3716" gradientTransform="matrix(1 0 0 -1 0 203.8898)">
	<stop  offset="0" style="stop-color:#B2B2B2"/>
	<stop  offset="1" style="stop-color:#333333"/>
</linearGradient>
<path class="st0" d="M127.5,63.7C127.5,28.5,98.9,0,63.7,0S0,28.5,0,63.7C0,73.5,2.3,83.2,6.6,92l0,0l0.1,0.1c0.5,1,1.1,2.1,1.6,3.1
	L63.7,199l55.4-103.8c0.6-1,1.1-2,1.6-3.1l0.1-0.1l0,0C125.2,83.2,127.5,73.5,127.5,63.7z M63.7,104.4c-22.5,0-40.7-18.2-40.7-40.6
	c0-22.5,18.2-40.7,40.6-40.7c22.5,0,40.7,18.2,40.7,40.6c0,0,0,0,0,0C104.4,86.2,86.2,104.4,63.7,104.4z"/>
<path class="st1" d="M127.5,63.7C127.5,28.5,98.9,0,63.7,0S0,28.5,0,63.7C0,73.5,2.3,83.2,6.6,92l0,0l0.1,0.1c0.5,1,1.1,2.1,1.6,3.1
	L63.7,199l55.4-103.8c0.6-1,1.1-2,1.6-3.1l0.1-0.1l0,0C125.2,83.2,127.5,73.5,127.5,63.7z M63.7,100.5C43.4,100.5,27,84,27,63.7
	S43.4,27,63.7,27s36.8,16.5,36.8,36.8l0,0C100.5,84,84,100.5,63.7,100.5z"/>
<linearGradient id="SVGID_2_" gradientUnits="userSpaceOnUse" x1="63.73" y1="203.9033" x2="63.73" y2="4.8398" gradientTransform="matrix(1 0 0 -1 0 203.8898)">
	<stop  offset="0.47" style="stop-color:#FFFFFF"/>
	<stop  offset="0.52" style="stop-color:#F2F2F2"/>
	<stop  offset="0.61" style="stop-color:#CFCFCF"/>
	<stop  offset="0.73" style="stop-color:#969696"/>
	<stop  offset="0.88" style="stop-color:#484848"/>
	<stop  offset="1" style="stop-color:#000000"/>
</linearGradient>
<path class="st2" d="M127.5,63.7C127.5,28.5,98.9,0,63.7,0S0,28.5,0,63.7C0,73.5,2.3,83.2,6.6,92l0,0l0.1,0.1c0.5,1,1.1,2.1,1.6,3.1
	L63.7,199l55.4-103.8c0.6-1,1.1-2,1.6-3.1l0.1-0.1l0,0C125.2,83.2,127.5,73.5,127.5,63.7z M63.7,100.5C43.4,100.5,27,84,27,63.7
	S43.4,27,63.7,27s36.8,16.5,36.8,36.8l0,0C100.5,84,84,100.5,63.7,100.5z"/>
</svg>
